<?xml version="1.0" encoding="utf-8"?>
<!-- Generator: Adobe Illustrator 24.1.3, SVG Export Plug-In . SVG Version: 6.00 Build 0)  -->
<svg version="1.1" id="g_copy_1_" xmlns="http://www.w3.org/2000/svg" xmlns:xlink="http://www.w3.org/1999/xlink" x="0px" y="0px"
	 viewBox="0 0 16 16" style="enable-background:new 0 0 16 16;" xml:space="preserve">
<style type="text/css">
	.st0{fill-rule:evenodd;clip-rule:evenodd;}
</style>
<g id="g_copy">
	<g>
		<path class="st0" d="M13.33,12.07c-0.12-0.28-0.32-0.54-0.6-0.77c-0.29-0.23-0.67-0.44-1.15-0.62c-0.48-0.18-1.09-0.34-1.81-0.47
			c-0.66-0.12-1.2-0.23-1.62-0.33c-0.42-0.1-0.75-0.2-0.98-0.31c-0.23-0.1-0.39-0.21-0.48-0.32C6.59,9.15,6.54,9.03,6.54,8.89
			c0-0.16,0.06-0.28,0.19-0.37c0.13-0.09,0.26-0.14,0.4-0.16c0.15-0.03,0.31-0.03,0.46-0.02C7.75,8.36,7.9,8.37,8.05,8.37
			c0.6,0,1.16-0.09,1.68-0.26c0.52-0.17,0.98-0.41,1.36-0.71c0.38-0.3,0.69-0.65,0.91-1.06c0.22-0.4,0.33-0.83,0.33-1.28
			c0-0.46-0.1-0.88-0.31-1.28c-0.21-0.4-0.49-0.74-0.86-1.03c-0.03-0.01-0.04-0.04-0.04-0.08c0-0.04,0.02-0.06,0.08-0.08
			c0.19-0.06,0.36-0.14,0.53-0.25c0.17-0.1,0.32-0.22,0.45-0.35c0.13-0.13,0.23-0.29,0.31-0.46c0.08-0.17,0.11-0.36,0.11-0.56
			c0-0.29-0.08-0.53-0.23-0.7c-0.15-0.17-0.37-0.26-0.65-0.26c-0.28,0-0.49,0.09-0.63,0.26c-0.14,0.17-0.21,0.37-0.21,0.58
			c0,0.09,0.01,0.19,0.03,0.3c0.02,0.11,0.02,0.23,0.02,0.36c0,0.13-0.03,0.25-0.08,0.37c-0.05,0.12-0.14,0.24-0.27,0.35
			c-0.06,0.05-0.14,0.05-0.23,0.02C9.73,1.96,9.02,1.81,8.23,1.81c-0.6,0-1.16,0.09-1.68,0.26C6.03,2.25,5.57,2.49,5.18,2.79
			C4.8,3.09,4.49,3.45,4.27,3.85c-0.22,0.4-0.33,0.82-0.33,1.28C3.94,5.44,4,5.75,4.1,6.04c0.1,0.29,0.25,0.57,0.44,0.81
			c0.19,0.25,0.42,0.47,0.69,0.68C5.5,7.74,5.8,7.9,6.14,8.03C6.18,8.04,6.2,8.07,6.2,8.1c0,0.03-0.02,0.06-0.07,0.07
			C5.87,8.24,5.62,8.32,5.4,8.43C5.18,8.53,4.98,8.66,4.82,8.81C4.66,8.96,4.54,9.13,4.45,9.33c-0.09,0.2-0.13,0.42-0.13,0.68
			c0,0.38,0.09,0.71,0.27,0.98c0.18,0.27,0.41,0.51,0.69,0.7c0.03,0.03,0.05,0.05,0.05,0.08c0,0.02-0.03,0.04-0.07,0.06
			c-0.35,0.07-0.66,0.17-0.93,0.29c-0.28,0.13-0.51,0.27-0.71,0.45c-0.2,0.17-0.35,0.36-0.45,0.56C3.06,13.32,3,13.53,3,13.74
			c0,0.15,0.02,0.31,0.07,0.48c0.05,0.17,0.14,0.33,0.27,0.5c0.13,0.17,0.31,0.33,0.54,0.48c0.23,0.15,0.53,0.29,0.9,0.41
			c0.37,0.12,0.82,0.22,1.34,0.29C6.66,15.97,7.28,16,7.99,16c0.71,0,1.35-0.04,1.9-0.13c0.55-0.09,1.03-0.21,1.44-0.36
			c0.41-0.15,0.75-0.33,1.02-0.53c0.28-0.2,0.5-0.41,0.67-0.63c0.17-0.22,0.29-0.45,0.36-0.68c0.07-0.23,0.11-0.45,0.11-0.67
			C13.5,12.67,13.44,12.36,13.33,12.07z M6.92,4.01c0.05-0.33,0.13-0.63,0.24-0.88c0.11-0.25,0.24-0.45,0.4-0.59
			C7.73,2.4,7.92,2.32,8.14,2.32c0.22,0,0.41,0.07,0.57,0.22c0.16,0.14,0.29,0.34,0.4,0.59c0.11,0.25,0.19,0.55,0.24,0.88
			c0.05,0.33,0.08,0.69,0.08,1.08c0,0.38-0.03,0.74-0.08,1.08C9.31,6.5,9.23,6.79,9.12,7.05C9.01,7.3,8.87,7.5,8.71,7.64
			C8.55,7.79,8.36,7.86,8.14,7.86c-0.22,0-0.41-0.07-0.57-0.22C7.41,7.5,7.27,7.3,7.16,7.05C7.06,6.79,6.98,6.5,6.92,6.17
			C6.87,5.83,6.84,5.47,6.84,5.09C6.84,4.71,6.87,4.35,6.92,4.01z M10.88,14.65c-0.17,0.17-0.39,0.31-0.65,0.43
			c-0.27,0.11-0.56,0.2-0.87,0.26c-0.32,0.06-0.62,0.09-0.92,0.09C8,15.42,7.6,15.38,7.2,15.3c-0.4-0.08-0.75-0.21-1.05-0.38
			c-0.3-0.17-0.55-0.39-0.73-0.66c-0.19-0.27-0.28-0.59-0.28-0.96c0-0.33,0.09-0.58,0.27-0.76c0.18-0.18,0.39-0.31,0.63-0.4
			c0.05-0.01,0.09-0.01,0.12,0c0.38,0.14,0.77,0.26,1.16,0.34c0.4,0.08,0.75,0.15,1.05,0.2c0.35,0.06,0.68,0.13,1.01,0.2
			c0.33,0.07,0.62,0.16,0.88,0.27c0.26,0.11,0.47,0.24,0.62,0.38c0.16,0.15,0.23,0.33,0.23,0.54
			C11.13,14.28,11.05,14.48,10.88,14.65z"/>
	</g>
</g>
</svg>
